<?xml version="1.0" encoding="UTF-8"?>
<svg version="1.1" xmlns="http://www.w3.org/2000/svg" width="77" height="77">
<path d="M0 0 C25.41 0 50.82 0 77 0 C77 25.41 77 50.82 77 77 C51.59 77 26.18 77 0 77 C0 51.59 0 26.18 0 0 Z " fill="#FCFDFD" transform="translate(0,0)"/>
<path d="M0 0 C3.96 0 7.92 0 12 0 C12.33 3.96 12.66 7.92 13 12 C14.48185125 10.37744772 15.96040256 8.75188112 17.4375 7.125 C18.26121094 6.22007813 19.08492187 5.31515625 19.93359375 4.3828125 C22.00907942 2.18862073 22.00907942 2.18862073 23 0 C27.95 0 32.9 0 38 0 C37.113125 1.03125 36.22625 2.0625 35.3125 3.125 C34.50039062 4.08212891 34.50039062 4.08212891 33.671875 5.05859375 C32.62121271 6.27863851 31.5507331 7.48216775 30.453125 8.66015625 C28.87474289 10.33970092 28.87474289 10.33970092 27 13 C27.36851497 16.07889574 28.65906714 18.37867823 30.25 21.00390625 C30.6934375 21.74447266 31.136875 22.48503906 31.59375 23.24804688 C32.0578125 24.01181641 32.521875 24.77558594 33 25.5625 C33.9192429 27.08308097 34.83601676 28.60515803 35.75 30.12890625 C36.15734375 30.79994385 36.5646875 31.47098145 36.984375 32.16235352 C38 34 38 34 39 37 C34.38 37 29.76 37 25 37 C22.69 32.38 20.38 27.76 18 23 C12.93432845 26.2491477 12.93432845 26.2491477 12.29296875 29.578125 C12.25816406 30.45984375 12.22335937 31.3415625 12.1875 32.25 C12.0946875 34.60125 12.0946875 34.60125 12 37 C8.04 37 4.08 37 0 37 C0 24.79 0 12.58 0 0 Z " fill="#0B0B0B" transform="translate(1,21)"/>
<path d="M0 0 C1.9375 1.375 1.9375 1.375 3 3 C3 4.65 3 6.3 3 8 C-0.3 8.33 -3.6 8.66 -7 9 C-7.33 8.01 -7.66 7.02 -8 6 C-10.70879335 4.64560332 -13.00933268 4.93498549 -16 5 C-15.67 6.32 -15.34 7.64 -15 9 C-14.04738281 9.24234375 -13.09476563 9.4846875 -12.11328125 9.734375 C-10.85902344 10.06953125 -9.60476562 10.4046875 -8.3125 10.75 C-7.07113281 11.07484375 -5.82976562 11.3996875 -4.55078125 11.734375 C-0.39614212 13.21523647 2.97257442 14.94514885 5 19 C5.37838031 24.01353911 5.13135639 27.00482115 2 31 C-3.49066306 36.06830437 -8.05311291 36.30754843 -15.30859375 36.2109375 C-18.89335386 35.92998388 -21.09517412 35.12548235 -24 33 C-26.99884341 29.2909042 -28 27.8295217 -28 23 C-24.7 22.67 -21.4 22.34 -18 22 C-17.443125 23.2065625 -17.443125 23.2065625 -16.875 24.4375 C-15.19537479 27.28302166 -15.19537479 27.28302166 -11.9375 27.875 C-9.0659519 28.23499077 -9.0659519 28.23499077 -7 27 C-7.495 24.525 -7.495 24.525 -8 22 C-8.81984375 21.73445313 -9.6396875 21.46890625 -10.484375 21.1953125 C-11.56203125 20.84210937 -12.6396875 20.48890625 -13.75 20.125 C-14.81734375 19.77695312 -15.8846875 19.42890625 -16.984375 19.0703125 C-24.72468142 16.3231053 -24.72468142 16.3231053 -27 12 C-27.87057909 5.14418966 -27.87057909 5.14418966 -24.8125 1.125 C-17.15708648 -4.65909022 -8.29168854 -4.5688896 0 0 Z " fill="#4C8F94" transform="translate(71,23)"/>
<path d="M0 0 C4.866909 0.45273572 7.4419325 1.64525064 11 5 C12.53214888 8.06429776 12.22938548 10.6165642 12 14 C10.18201807 18.11438017 7.69425713 20.47709269 4 23 C-1.89108961 24.91744244 -8.60430467 24.78404574 -14.4375 22.875 C-17.55741477 20.59213553 -19.19167171 18.40800331 -21 15 C-21 13.68 -21 12.36 -21 11 C-17.7 10.67 -14.4 10.34 -11 10 C-10.443125 11.2065625 -10.443125 11.2065625 -9.875 12.4375 C-8.19537479 15.28302166 -8.19537479 15.28302166 -4.9375 15.875 C-2.0659519 16.23499077 -2.0659519 16.23499077 0 15 C-0.33 13.35 -0.66 11.7 -1 10 C-3.31 9.34 -5.62 8.68 -8 8 C-8 7.67 -8 7.34 -8 7 C-5.03 7.33 -2.06 7.66 1 8 C1 7.01 1 6.02 1 5 C1.66 5 2.32 5 3 5 C3 4.34 3 3.68 3 3 C2.01 3 1.02 3 0 3 C0 2.01 0 1.02 0 0 Z " fill="#74749C" transform="translate(64,35)"/>
<path d="M0 0 C0.433125 0.804375 0.86625 1.60875 1.3125 2.4375 C2.83855664 5.41166194 2.83855664 5.41166194 6.625 5.75 C7.73875 5.8325 8.8525 5.915 10 6 C11 7 11 7 11.0625 9.5625 C11.041875 10.366875 11.02125 11.17125 11 12 C6.37939044 13.54020319 1.82536624 13.51574193 -3 13 C-6.55980482 10.96582582 -8.65940264 8.89991961 -10 5 C-10 3.68 -10 2.36 -10 1 C-6.56484998 0.37542727 -3.50935186 0 0 0 Z " fill="#399C95" transform="translate(53,45)"/>
<path d="M0 0 C0.721875 0.268125 1.44375 0.53625 2.1875 0.8125 C2.5175 1.8025 2.8475 2.7925 3.1875 3.8125 C2.1975 4.3075 2.1975 4.3075 1.1875 4.8125 C0.77573246 8.41546594 1.0339147 9.59652067 3.1875 12.625 C3.8475 13.346875 4.5075 14.06875 5.1875 14.8125 C4.5275 16.1325 3.8675 17.4525 3.1875 18.8125 C-4.1203203 17.37489601 -4.1203203 17.37489601 -6.8125 15.1875 C-8.28245958 11.69634599 -8.58925387 8.48574728 -7.8125 4.8125 C-4.17613636 -0.27840909 -4.17613636 -0.27840909 0 0 Z " fill="#389994" transform="translate(51.8125,22.1875)"/>
<path d="M0 0 C0.66 0.33 1.32 0.66 2 1 C2 1.66 2 2.32 2 3 C2.556875 3.18175781 3.11375 3.36351562 3.6875 3.55078125 C5.28391056 4.07662595 6.87752036 4.61102354 8.46875 5.15234375 C10.0846122 5.6934581 11.70932599 6.20925117 13.34375 6.69140625 C15.5 7.375 15.5 7.375 19 9 C20 11.6875 20 11.6875 20 14 C17 16 17 16 14 15.8125 C10.97636283 14.99359827 9.76141566 14.54426706 8 12 C8 11.01 8 10.02 8 9 C4.7 9.33 1.4 9.66 -2 10 C-2 9.34 -2 8.68 -2 8 C-0.35 8 1.3 8 3 8 C2.690625 7.4225 2.38125 6.845 2.0625 6.25 C1.07416636 4.15705816 0.4831387 2.25464725 0 0 Z " fill="#EEF8F9" transform="translate(45,36)"/>
<path d="M0 0 C8.01185922 1.30107116 8.01185922 1.30107116 11.5625 3.8125 C13 6 13 6 13 11 C9.7 11.33 6.4 11.66 3 12 C2.67 11.01 2.34 10.02 2 9 C1.195625 8.3503125 1.195625 8.3503125 0.375 7.6875 C-1 6 -1 6 -0.6875 2.8125 C-0.460625 1.884375 -0.23375 0.95625 0 0 Z " fill="#637799" transform="translate(61,20)"/>
<path d="M0 0 C1.32 0 2.64 0 4 0 C4.433125 0.804375 4.86625 1.60875 5.3125 2.4375 C6.83855664 5.41166194 6.83855664 5.41166194 10.625 5.75 C11.73875 5.8325 12.8525 5.915 14 6 C15 7 15 7 15.0625 9.5625 C15.041875 10.366875 15.02125 11.17125 15 12 C12.11788698 12.96070434 10.30149956 13.10581883 7.3125 13.0625 C6.10013672 13.04896484 6.10013672 13.04896484 4.86328125 13.03515625 C3.94095703 13.01775391 3.94095703 13.01775391 3 13 C3 12.67 3 12.34 3 12 C4.65 12 6.3 12 8 12 C6.63016497 8.83884224 6.0109362 8.0072908 3 6 C3 4.68 3 3.36 3 2 C1.35 2 -0.3 2 -2 2 C-1.34 1.34 -0.68 0.68 0 0 Z " fill="#518693" transform="translate(49,45)"/>
<path d="M0 0 C5.625 -0.25 5.625 -0.25 9 2 C9 2.99 9 3.98 9 5 C10.32 5 11.64 5 13 5 C13.33 6.32 13.66 7.64 14 9 C11.87308203 8.55065113 9.74849961 8.09023527 7.625 7.625 C6.44164062 7.36976562 5.25828125 7.11453125 4.0390625 6.8515625 C1 6 1 6 -1 4 C-0.625 1.875 -0.625 1.875 0 0 Z " fill="#E8F4F6" transform="translate(55,27)"/>
<path d="M0 0 C1.125 1.6875 1.125 1.6875 2 4 C1.125 6.5625 1.125 6.5625 0 9 C0 9.99 0 10.98 0 12 C0 12.66 0 13.32 0 14 C-1.65 13.67 -3.3 13.34 -5 13 C-5.61538462 5.73846154 -5.61538462 5.73846154 -2.5 2 C-1.675 1.34 -0.85 0.68 0 0 Z " fill="#36A795" transform="translate(49,22)"/>
<path d="M0 0 C1.32 0.66 2.64 1.32 4 2 C3.82147099 6.17757884 3.62361108 9.83781571 1.625 13.5625 C-2.67369299 15.91654616 -7.20659873 15.29752146 -12 15 C-12 14.67 -12 14.34 -12 14 C-6.555 13.505 -6.555 13.505 -1 13 C-1.20625 12.154375 -1.4125 11.30875 -1.625 10.4375 C-2.05843012 6.46439054 -1.2762763 3.75375382 0 0 Z " fill="#697D9A" transform="translate(65,44)"/>
<path d="M0 0 C2.46800047 1.15173355 4.04783565 2.04783565 6 4 C6 5.65 6 7.3 6 9 C2.7 9.33 -0.6 9.66 -4 10 C-3.34 9.67 -2.68 9.34 -2 9 C-1.31270746 6.88153715 -1.31270746 6.88153715 -0.875 4.4375 C-0.70742187 3.61121094 -0.53984375 2.78492188 -0.3671875 1.93359375 C-0.24601562 1.29550781 -0.12484375 0.65742188 0 0 Z " fill="#717A9D" transform="translate(68,22)"/>
<path d="M0 0 C1.32 0 2.64 0 4 0 C4 1.32 4 2.64 4 4 C4.99 4 5.98 4 7 4 C7 4.66 7 5.32 7 6 C6.34 6 5.68 6 5 6 C5 6.99 5 7.98 5 9 C3.35 8.67 1.7 8.34 0 8 C0 5.36 0 2.72 0 0 Z " fill="#587E97" transform="translate(60,34)"/>
<path d="M0 0 C0.66 0.33 1.32 0.66 2 1 C2 1.66 2 2.32 2 3 C2.804375 3.2475 3.60875 3.495 4.4375 3.75 C5.283125 4.1625 6.12875 4.575 7 5 C7.33 6.32 7.66 7.64 8 9 C4.7 9.33 1.4 9.66 -2 10 C-2 9.34 -2 8.68 -2 8 C-0.35 8 1.3 8 3 8 C2.690625 7.4225 2.38125 6.845 2.0625 6.25 C1.07416636 4.15705816 0.4831387 2.25464725 0 0 Z " fill="#DDF5F4" transform="translate(45,36)"/>
<path d="M0 0 C0 4.11255938 -2.1864032 5.74428765 -4.875 8.5625 C-5.33519531 9.05685547 -5.79539062 9.55121094 -6.26953125 10.06054688 C-8.14846306 12.07291008 -10.05319531 14.05319531 -12 16 C-11.14590173 11.49580017 -8.52252531 8.96982667 -5.4375 5.75 C-4.91736328 5.19570313 -4.39722656 4.64140625 -3.86132812 4.0703125 C-2.58069015 2.70743172 -1.2911951 1.35288317 0 0 Z " fill="#DBDADB" transform="translate(39,21)"/>
<path d="M0 0 C1.32 0 2.64 0 4 0 C4.33 1.98 4.66 3.96 5 6 C4.01 6.66 3.02 7.32 2 8 C0.23537317 4.91190305 0 3.76687864 0 0 Z " fill="#36A691" transform="translate(43,46)"/>
<path d="M0 0 C0.99 0 1.98 0 3 0 C3 2.97 3 5.94 3 9 C1.68 8.34 0.36 7.68 -1 7 C-0.67 4.69 -0.34 2.38 0 0 Z " fill="#61859C" transform="translate(61,20)"/>
<path d="M0 0 C1.32 0 2.64 0 4 0 C5.625 2.375 5.625 2.375 7 5 C7.66 5.66 8.32 6.32 9 7 C7.35 7 5.7 7 4 7 C3.67 5.35 3.34 3.7 3 2 C1.35 2 -0.3 2 -2 2 C-1.34 1.34 -0.68 0.68 0 0 Z " fill="#589B99" transform="translate(49,45)"/>
<path d="M0 0 C1.98 0.99 1.98 0.99 4 2 C4 3.65 4 5.3 4 7 C2.68 7 1.36 7 0 7 C0 4.69 0 2.38 0 0 Z " fill="#777395" transform="translate(70,24)"/>
<path d="M0 0 C2.97 0.495 2.97 0.495 6 1 C6 1.99 6 2.98 6 4 C3.03 3.505 3.03 3.505 0 3 C0 2.01 0 1.02 0 0 Z " fill="#6B7896" transform="translate(64,35)"/>
<path d="M0 0 C0.66 1.32 1.32 2.64 2 4 C0.35 4.33 -1.3 4.66 -3 5 C-3 4.01 -3 3.02 -3 2 C-2.01 1.34 -1.02 0.68 0 0 Z " fill="#48A89B" transform="translate(49,22)"/>
<path d="M0 0 C0.99 0 1.98 0 3 0 C4 3 4 3 3.0625 5.1875 C2.5365625 6.0846875 2.5365625 6.0846875 2 7 C0.35 7 -1.3 7 -3 7 C-2.360625 6.38125 -1.72125 5.7625 -1.0625 5.125 C1.03883584 3.17402388 1.03883584 3.17402388 2 1 C1.34 0.67 0.68 0.34 0 0 Z " fill="#548390" transform="translate(58,20)"/>
</svg>
